<?xml version="1.0" encoding="UTF-8" standalone="no"?>
<!-- Created with Inkscape (http://www.inkscape.org/) -->

<svg
   width="275.55151mm"
   height="223.89603mm"
   viewBox="0 0 275.55151 223.89603"
   version="1.1"
   id="svg1"
   xml:space="preserve"
   xmlns="http://www.w3.org/2000/svg"
   xmlns:svg="http://www.w3.org/2000/svg"><defs
     id="defs1"><linearGradient
       id="linearGradient115"><stop
         style="stop-color:#f2c855;stop-opacity:1;"
         offset="0"
         id="stop115" /><stop
         style="stop-color:#f2c855;stop-opacity:0;"
         offset="1"
         id="stop116" /></linearGradient></defs><path
     id="path96-4-7"
     style="display:inline;fill:#000000"
     d="m 137.06335,6.0627923e-4 c -1.9388,0.0100000008 -3.4665,0.15890000077 -4.9351,0.41500000077 -2.6065,0.4545 -4.8751,1.42230002 -9.2996,3.96670002 -6.1188,3.5187 -14.3777,7.0487997 -23.7077,10.1326997 -2.786,0.9209 -5.6621,1.9689 -6.3908,2.329 -1.4025,0.693 -2.8113,1.9153 -3.3021,2.8645 -0.9979,1.9297 -1.3302,5.8743 -1.3328,15.8336 0,10.2265 -0.4545,12.3464 -2.7559,12.9258 -0.964,0.2428 -1.7051,0.1557 -4.6539,-0.5477 -1.2126,-0.2893 -2.8611,-0.5704 -3.6629,-0.6248 -1.8463,-0.1252 -2.1588,0.082 -2.1569,1.4335 0,1.2421 0.5963,3.605 1.2159,4.8323 2.2223,4.4024 9.4661,9.7138 16.2455,11.9119 2.1663,0.7024 3.4466,0.9494 6.0317,1.1632 2.202,0.1822 3.0643,0.5606 3.6499,1.6025 0.6167,1.0973 0.6363,1.9685 0.1033,4.5744 -1.0468,5.1192 -0.1745,8.7082 2.7621,11.3657 2.0593,1.8636 4.6512,2.7549 8.0109,2.7549 4.3095,0 7.766,-1.1688 12.5151,-4.2323 2.8934,-1.8664 3.8621,-2.3915 5.5387,-3.0034 1.7134,-0.6253 2.8572,-0.6841 3.3687,-0.1726 0.6191,0.619 0.3541,1.3714 -0.9115,2.5848 -3.0806,2.9535 -13.5747,7.6173 -19.4413,8.6403 -2.8717,0.5008 -5.293,0.049 -8.6144,-1.6055 -2.0947,-1.0437 -3.6811,-2.1252 -5.5031,-3.7518 -2.6886,-2.4002 -3.5086,-3.0194 -4.964,-3.7486 -2.384,-1.1944 -4.6884,-1.4962 -7.4254,-0.9725 -3.9164,0.7494 -6.2701,-0.2307 -8.9322,-3.7192 -3.6357,-4.7641 -6.6036,-14.0665 -8.0424,-25.2088 -0.9147,-7.0828 -0.9641,-8.1956 -0.999,-22.5774 -0.033,-13.7487 -0.1213,-15.9708 -0.7177,-18.1059 -0.3515,-1.2584997 -1.1108,-2.1980997 -1.9694,-2.4364997 -1.1453,-0.3181 -3.9016,-0.1416 -4.0349,0.2584 -0.032,0.097 0.649,0.5164 1.5136,0.9327 4.1169,1.9824997 4.2475,4.7725997 0.2801,5.9768997 -0.8142,0.2472 -1.6283,0.3197 -3.528,0.3142 -2.2197,-0.01 -2.608,-0.055 -3.8406,-0.4852 -4.5197,-1.5758 -9.0137,-4.8498 -13.0323,-9.4939997 -1.1311,-1.3072 -2.8207,-3.1072 -3.7548,-4.0003 -1.6621,-1.58900002 -2.3598,-2.00680002 -2.1275,-1.27490002 0.061,0.19170002 0.1164,1.24310002 0.1235,2.33690002 0.01,1.5145 -0.061,2.1689 -0.2971,2.745 -0.3093,0.7553 -0.9723,1.2738 -1.6242,1.2702 -0.5852,0 -2.0694,-0.8244 -3.4928,-1.9327 -1.2788,-0.9958 -2.2013,-1.5932 -2.4603,-1.5932 -0.201,0 -0.082,1.0446 0.3607,3.1771 0.5038,2.424 0.4866,3.3839997 -0.09,5.0254997 -1.8905,5.3786 -10.0764,8.6491 -17.6574,7.0544 -1.6993,-0.3575 -3.1286999,-0.8588 -5.2879999,-1.8552 -2.0144,-0.9296 -3.689,-1.323 -4.8287,-1.1338 -3.74410001,0.6218 -4.0387,4.2959 -0.6082,7.5851 0.8908,0.8541 1.2958,1.1423 1.3358,0.9503 0.032,-0.1515 -0.2709,-1.223 -0.6723,-2.3812 -1.234,-3.5613 -1.4183,-4.1995 -1.3642,-4.7315 0.063,-0.6185 0.4599,-0.9051 1.0495,-0.7571 0.5989,0.1503 3.3599,2.2516 4.6669,3.5517 1.5118,1.5038 1.9127,2.3298 1.9089,3.9321 0,1.202 -0.06,1.3876 -0.9503,3.0866 -2.9158,5.5632 -3.132,6.2045 -2.8101,8.3344 0.157,1.0383 0.4649,1.7245 2.6293,5.8555 2.0560999,3.9243 1.3521,5.4863 -4.2055,9.3291 -2.9114,2.0131 -4.08800001,2.9295 -3.98160001,3.1016 0.047,0.077 1.29280001,0.09 2.76770001,0.029 2.2103,-0.091 2.8578,-0.06 3.6841,0.1809 1.966,0.572 2.7048,1.7124 2.5135,3.8788 -0.092,1.04 -0.046,1.4341 0.262,2.2495 1.4282999,3.7833 6.7232999,7.8788 11.6178999,8.9865 0.4154,0.094 1.4601,0.2442 2.3218,0.3333 2.0743,0.2146 3.2974,0.7924 4.6835,2.2128 0.582,0.5965 1.3298,1.5413 1.6613,2.0996 1.3165,2.2177 2.3074,5.8835 2.3074,8.5344 0,1.5367 -0.3294,2.1659 -1.464,2.7947 l -0.9172,0.5085 h -3.9104 c -3.6941,0 -3.938,0.02 -4.4096,0.3695 -0.7785,0.5766 -0.9703,1.0809 -0.8604,2.2608 0.2449,2.6271 3.1097,7.2552 8.0579,13.017804 2.2255,2.5917 7.9011,8.5768 10.8366,11.4272 7.5654,7.3462 13.32,13.8321 14.4777,16.3163 1.2074,2.591 -0.3527,3.2551 -4.1703,1.7756 -0.921,-0.3569 -3.2231,-1.3902 -5.1155,-2.2965 -7.3345,-3.5124 -11.9908,-4.3722 -18.3456,-3.3874 -3.5644,0.5524 -6.9203,0.9447 -10.0134,1.171 -3.4937,0.2557 -5.3698,0.8582 -7.4656999,2.3968 -4.1011,3.0105 -5.8289,8.8603 -3.8649,13.086 0.9128,1.9638 2.9165,3.6638 5.0282,4.2664 0.3880999,0.1108 1.6436999,0.2716 2.7899999,0.3571 2.4123,0.1799 3.476,0.5881 4.1501,1.5927 0.9031,1.3458 0.1281,3.8917 -2.0944,6.8791 -0.6134,0.8247 -2.8303,3.2458 -4.9262999,5.3801 -4.0476,4.1213 -5.1336,5.4288 -6.1495,7.4078 -0.5499,1.0712 -0.6346,1.4027 -0.6413,2.5016 -0.01,1.1712 0.032,1.3088 0.5214,1.8237 1.0811,1.1379 1.6834,1.2861 7.1819999,1.7627 9.9304,0.8608 19.5296,1.7824 20.423,1.9611 3.1597,0.6321 4.086,2.5297 3.175,6.5035 -1.2878,5.6173 1.4889,7.8995 3.5083,2.8835 0.8453,-2.0996 1.0762,-2.4875 1.6118,-2.7094 0.6214,-0.2574 0.9841,-0.077 1.8309,0.9126 2.6315,3.0743 1.3645,5.7394 -3.6737,7.7298 -3.3212,1.312 -4.8517,2.9355 -3.454,3.6633 0.8756,0.4561 3.1779,-0.1431 6.0854,-1.5833 2.3329,-1.1556 4.1022,-2.2565 6.8792,-4.2793 6.8079,-4.9594 8.5239,-5.7866 9.9745,-4.8091 0.7484,0.5043 1.0463,1.0226 2.1787,3.7921 1.4754,3.6081 3.1798,6.1791 4.8147,7.262 2.1441,1.4203 2.4831,0.1234 1.1715,-4.4839 -0.8205,-2.882 -0.9052,-4.5199 -0.2604,-5.0426 0.5619,-0.4555 1.3177,-0.4246 3.0546,0.124 3.7634,1.1889 6.5962,-0.088 11.3383,-5.1097 3.2543,-3.4463 5.655,-5.3489 8.276,-6.5588 2.5505,-1.1774 4.6246,-1.2463 5.6813,-0.1897 0.5504,0.5505 0.9519,1.5449 0.9539,2.3637 0.01,3.0143 12.9569,13.384 22.0142,17.6284 1.1344,0.5316 2.6331,1.0294 4.4452,1.4764 6.0057,1.4814 10.8522,3.6126 16.0595,7.0626 5.4526,3.6125 9.1992,7.1044 13.0897,12.1998 4.2457,5.5606 8.2926,8.2942 12.8312,8.6677 4.2029,0.3458 7.215,0.5126 11.4655,0.634 5.5782,0.1594 22.2035,0.063 32.014,-0.1855 16.2036,-0.4104 23.5964,-0.7502 25.3122,-1.1627 1.5543,-0.3737 4.4717,-1.8038 5.9283,-2.9063 4.7749,-3.6141 8.7856,-8.7645 12.4881,-16.0367 5.8342,-11.4592 9.0947,-24.9466 9.1018,-37.6504 0,-8.539 0.7759,-15.0261 2.3161,-19.4857 0.8153,-2.3604 2.7857,-6.1992 4.6705,-9.0981 3.0185,-4.6425 4.1243,-7.081 4.1243,-9.0961 0,-0.9886 -0.05,-1.1314 -0.5829,-1.664 -2.0297,-2.0298 -8.1825,-0.04 -18.435,5.9629 -5.5581,3.2542 -8.9013,4.1873 -11.0986,3.0975 -4.3622,-2.1636 -0.5305,-12.1187 9.0119,-23.4135 0.6864,-0.8126 2.5136,-2.8366 4.0602,-4.4979 5.7816,-6.2106 9.7614,-11.843404 13.6648,-19.341504 6.8508,-13.1597 10.4665,-27.6664 8.4021,-33.7091 -0.3382,-0.9898 -1.2876,-2.1408 -2.0139,-2.4417 -0.3202,-0.1326 -1.0186,-0.1932 -1.7492,-0.1519 -1.5853,0.09 -3.4112,0.9897 -6.1986,3.0556 -2.6432,1.9592 -4.3601,2.9613 -6.028,3.5187 -1.6763,0.5602 -2.6512,0.5752 -3.6758,0.056 -1.1939,-0.6052 -1.4968,-1.2743 -1.4965,-3.3073 2e-4,-1.4441 0.086,-1.9318 0.6175,-3.528 0.585,-1.7556 0.6161,-1.9712 0.5994,-4.1449 -0.057,-7.4714 -4.7101,-21.058 -9.0087,-26.3069 -0.3291,-0.4019 -0.8352,-0.8288 -1.125,-0.9488 -2.796,-1.1582 -9.4491,4.6989 -15.2311,13.409 -4.0709,6.1324 -6.1528,10.6016 -7.5179,16.1401 -0.9279,3.7647 -1.4819,5.5332 -2.1544,6.8786 -1.1791,2.3591 -2.5505,3.3908 -4.2711,3.2133 -2.0197,-0.2085 -3.9974,-1.7359 -7.2941,-5.6338 -2.7316,-3.2297 -3.7788,-4.2381 -4.3206,-4.161 -0.651,0.093 -1.103,1.3756 -2.1529,6.1123 -1.9299,8.707 -3.2036,11.1778 -5.2762,10.2335 -1.4846,-0.6765 -3.023,-5.464 -4.1573,-12.9393 -1.7094,-11.2655 -1.0473,-14.9764 3.5941,-20.1486 4.3207,-4.8148 7.6944,-10.3986 9.9937,-16.5401 0.6905,-1.8443 0.9457,-2.7857 1.0082,-3.7181 0.081,-1.211 0.066,-1.2681 -0.4951,-1.9074 -1.0843,-1.235 -3.1444,-1.9769997 -8.371,-3.0147997 -3.5328,-0.7014 -6.8234,-1.2279 -23.1072,-3.6959 -22.7425,-3.4469 -32.2618,-4.68670002 -38.0783,-4.65910002077 z M 123.36195,43.430506 c 1.174,-0.026 2.5842,0.1597 4.2255,0.5571 2.453,0.594 3.9313,1.3237 5.145,2.5394 1.8928,1.8961 2.6649,4.1586 2.6535,7.7752 -0.01,2.729 -0.1986,3.9544 -0.8082,5.2049 -0.6885,1.4124 -1.8637,1.8272 -3.4871,1.2309 -2.5175,-0.9247 -8.4719,-6.632 -10.6955,-10.2516 -1.2102,-1.9698 -1.5509,-3.9119 -0.9079,-5.1723 0.6181,-1.2115 1.918,-1.8407 3.8747,-1.8836 z m 65.722,38.0365 c 1.6875,-0.001 1.817,0.027 2.7208,0.5725 1.8686,1.1288 2.7555,3.1011 2.7161,6.041 -0.038,2.8267 -0.9063,4.9101 -2.2872,5.487 -0.8051,0.3364 -1.2645,0.3093 -2.1451,-0.1266 -1.579,-0.7816 -2.7486,-2.6843 -4.1062,-6.6802 -1.4918,-4.391 -0.9646,-5.2915 3.1016,-5.2937 z m 2.4144,28.606504 c 0.3745,-0.024 0.7642,-0.021 1.188,0 4.9984,0.2893 9.2306,5.833 11.1916,14.6601 0.6787,3.0551 0.9793,5.6615 1.1627,10.08 0.3044,7.3346 0.8474,11.6023 2.1322,16.7633 1.2288,4.9363 1.7741,6.2547 5.1764,12.5119 7.341,13.5009 9.7968,18.6148 10.8893,22.6777 0.518,1.9266 0.5554,5.0155 0.088,7.2321 -0.4297,2.037 -1.6004,5.505 -2.2278,6.5996 -0.8322,1.4518 -2.0172,2.405 -2.9735,2.3921 -0.1634,0 -0.559,-0.1329 -0.8785,-0.2904 -1.3839,-0.6821 -2.8437,-3.0639 -4.0824,-6.6606 -0.3986,-1.1574 -1.5614,-5.2847 -2.5844,-9.1721 -5.4323,-20.6443 -5.6346,-21.3002 -8.5731,-27.7936 -2.8553,-6.3096 -5.8146,-11.7501 -10.4453,-19.2045 -6.6166,-10.6509 -9.0896,-16.2742 -9.0972,-20.6851 -0.01,-3.6415 1.8169,-6.2947 5.5537,-8.0827 1.3691,-0.655 2.3569,-0.9608 3.4804,-1.0314 z" /><path
     style="display:inline;fill:#000000;fill-opacity:1"
     d="m 9.4771501,140.94141 c -1.733,-0.6139 -3.3299,-2.0503 -4.2522,-3.8247 -0.6402,-1.2318 -0.6543,-2.7581 -0.034,-3.6792 0.9513,-1.4124 3.6306,-2.1393 5.6903999,-1.5438 1.9027,0.5502 3.3006,2.5057 3.3038,4.6217 0.01,3.4531 -2.0364,5.3724 -4.7078999,4.426 z"
     id="path102-5-5" /><path
     style="display:inline;fill:#fecf4b;fill-opacity:1"
     d="m 186.54495,25.223806 c -1.2271,-0.4375 -1.6872,-0.7917 -2.7822,-2.1422 -0.4972,-0.6132 -1.1719,-1.2577 -1.4993,-1.4321 -0.7902,-0.4211 -2.0519,-0.414 -3.0015,0.017 -1.3478,0.6116 -2.4,0.3847 -2.877,-0.6205 -0.7397,-1.5588 0.2552,-3.6368 2.1145,-4.4161 0.2945,-0.1234 1.4454,-0.3097 2.5576,-0.414 2.7067,-0.2537 4.6134,-0.5939 8.1957,-1.4624 6.0523,-1.4673 7.2982,-0.9654 7.0987,2.8599 -0.143,2.7426 -1.1564,4.7257 -3.2157,6.2923 -1.9378,1.4741 -4.6385,2.0143 -6.5908,1.3182 z"
     id="path114-9-6" /><path
     style="display:inline;fill:#fecf4b;fill-opacity:1"
     d="m 55.99095,113.62741 c -8.7535,-1.5255 -20.0886,-9.506 -24.8124,-17.469104 -1.6961,-2.8592 -2.5514,-5.7823 -2.1879,-7.4775 0.3792,-1.768 1.1919,-2.3658 3.0537,-2.2463 1.7813,0.1144 3.7968,1.1878 7.0295,3.7441 1.4051,1.111 2.4988,1.7489 3.364,1.962 1.6863,0.4154 1.5988,-2.7664 -0.2083,-7.5727 -3.3844,-9.0013 -7.7056,-15.1252 -13.3143,-18.8686 -1.5721,-1.0493 -2.5589,-1.5771 -5.6212,-3.0067 -2.6217,-1.224 -4.6286,-2.5517 -6.2498,-4.1347 -4.2009,-4.1021 -4.8802,-8.88 -1.6855,-11.8569 1.0088,-0.9401 1.6283,-1.3228 3.2445,-2.0044 1.6373,-0.6905 2.2863,-1.2003 2.2863,-1.7957 0,-0.6541 -1.3535,-2.1293 -3.9789,-4.3365 -3.6843,-3.0976 -5.1545,-4.8532 -5.5631,-6.6433 -0.3285,-1.4386 0.5501,-2.8323 2.2729,-3.6054 2.2044,-0.9893 4.2583,-1.3091 9.8267,-1.53 5.613,-0.2228 6.9692,-0.5278 8.2612,-1.8581 1.0346,-1.0653 1.381,-2.2318 2.1433,-7.2178 0.5482,-3.5853 1.4307,-5.585 2.9023,-6.5768 1.792,-1.2075997 4.2834,0.3719 7.0813,4.4895 1.8445,2.7143 3.1456,3.9171 5.5411,5.1221 1.6482,0.829 3.3056,1.2655 5.5349,1.4575 2.4667,0.2124 3.745,0.7468 5.1968,2.1725 3.4055,3.3442 5.5319,10.2194 4.6462,15.0227 -0.4326,2.346 -0.9096,3.3633 -2.1877,4.6657 -0.6235,0.6353 -1.2072,1.2888 -1.297,1.4522 -0.3118,0.5672 -0.1743,3.7631 0.2732,6.3508 1.4533,8.4036 5.2682,19.9591 9.5682,28.9827 3.6249,7.6068 3.9292,8.5533 2.9552,9.1915 -0.5414,0.3547 -1.36,0.2699 -3.5654,-0.3695 -2.5218,-0.7311 -3.508,-0.5575 -4.7281,0.8319 -1.0151,1.156 -1.3439,2.1709 -1.4441,4.4572 -0.1582,3.6096 0.8743,6.393104 3.5069,9.454704 2.3284,2.7078 2.9467,4.4717 1.9731,5.6287 -1.2483,1.4835 -4.2582,3.0768 -6.7987,3.599 -1.6935,0.348 -4.9769,0.3411 -7.0189,-0.015 z"
     id="path108-5-00" /><path
     style="display:inline;fill:#fecf4b;fill-opacity:1"
     d="m 77.63015,126.43541 c -3.3845,-0.3934 -5.6776,-1.8507 -6.0526,-3.8464 -0.066,-0.3529 -0.038,-1.1231 0.062,-1.7115 0.4021,-2.3498 1.9547,-4.3769 3.7639,-4.9141 1.2215,-0.3628 1.7033,-0.3512 3.7982,0.091 3.0208,0.6379 5.1224,0.2538 6.0987,-1.1148 0.3443,-0.4828 0.4117,-0.796 0.4117,-1.9137 0,-1.2249 -0.065,-1.4674 -0.7772,-2.9048 -0.6679,-1.3475 -1.0529,-1.8434 -2.7341,-3.5211 -1.0762,-1.0739 -2.6928,-2.6117 -3.5923,-3.4173 -1.71,-1.5314 -2.2489,-2.2754 -2.066,-2.8517 0.3311,-1.043304 2.3184,-0.661604 15.5903,2.9948 3.501,0.9645 4.9044,1.1125 5.861,0.6179 1.5782,-0.8162 1.6074,-4.520304 0.049,-6.245004 -0.5117,-0.5664 -0.7668,-0.6997 -1.5335,-0.8019 -1.2417,-0.1654 -2.19,-0.7265 -2.7008,-1.5981 -0.5724,-0.9765 -0.5665,-1.9132 0.014,-2.2937 0.5996,-0.393 2.0927,-0.3506 3.7183,0.1056 1.4514,0.4072 1.6947,0.5017 4.7514,1.8445 3.3437,1.4689 3.9826,1.5923 8.2021,1.5837 2.6811,0 4.0491,-0.088 5.2916,-0.3191 7.0233,-1.3065 14.0132,-4.0706 19.6674,-7.7773 6.8578,-4.496 9.8966,-9.1087 8.1983,-12.4447 -0.4144,-0.8139 -2.6758,-2.9808 -3.7886,-3.6304 -0.7958,-0.4644 -1.0284,-0.5132 -2.3813,-0.4988 -2.0352,0.022 -3.368,0.5213 -10.0541,3.77 -8.0742,3.9231 -10.6903,4.8395 -13.8466,4.8508 -1.5005,0 -1.8889,-0.055 -2.6012,-0.406 -1.8347,-0.9036 -2.7789,-2.8408 -2.8104,-5.7666 -0.021,-1.9344 0.379,-3.0445 1.2986,-3.6054 0.9428,-0.5751 1.5794,-0.607 3.3388,-0.1672 1.5285,0.3821 1.7334,0.393 3.6995,0.1964 4.7893,-0.4788 12.8388,-3.1495 18.4713,-6.1285 3.5229,-1.8632 5.3266,-3.3524 5.6854,-4.6941 0.2691,-1.0064 0.4551,-1.2063 1.1226,-1.2063 0.9481,0 1.9112,0.8127 3.9937,3.3699 2.353,2.8893 3.7467,3.8639 4.665,3.2622 1.5347,-1.0055 0.7988,-6.5908 -1.6136,-12.2476 -1.0276,-2.4096 -2.3646,-4.8294 -4.2325,-7.6604 -4.331,-6.5637 -9.1257,-11.0267 -13.1016,-12.1953 -2.5364,-0.7454 -3.8797,-0.089 -6.1082,2.985 -1.0561,1.4566 -2.7026,2.8428 -3.6916,3.1077 -3.6041,0.9655 -5.3952,1.5922 -11.5553,4.043 -7.933,3.1562 -9.8072,3.491 -11.9912,2.1424 -1.1525,-0.7117 -1.9743,-1.8914 -3.5267,-5.0631 -5.6241,-11.4902 -5.2269,-15.588 1.8478,-19.0615 1.8025,-0.8851 3.8963,-1.6129 13.0528,-4.5373 3.9247,-1.2535 7.4926,-2.6716 10.7596,-4.2766 3.2141,-1.5789 4.4497,-2.3785 5.9977,-3.8815997 2.803,-2.7213 7.3666,-3.9918 14.2871,-3.9773 6.9927,0.015 13.6627,1.3409 20.6039,4.0966 3.5176,1.3964997 5.3009,2.5068997 6.0332,3.7563997 0.9352,1.5958 0.3416,3.2106 -2.2098,6.0124 -1.9557,2.1476 -2.6394,3.2505 -2.6417,4.2613 -0.001,0.5941 0.092,0.8112 0.4834,1.1212 0.417,0.3304 0.6462,0.3729 1.6316,0.3031 1.4853,-0.1054 3.0723,-0.8951 5.3051,-2.64 2.5526,-1.9949 3.0411,-2.2318 3.6794,-1.7847 0.5703,0.3995 0.4678,1.7322 -0.4498,5.8462 -0.9815,4.4009 -1.1297,6.7074 -0.4858,7.5619 0.3238,0.4297 0.4929,0.4963 1.2472,0.4912 1.1019,-0.01 2.0805,-0.6099 4.3364,-2.6695 0.8938,-0.8161 2.0478,-1.6914 2.5644,-1.945 1.6178,-0.7941 3.4599,-0.7213 3.929,0.1553 0.7446,1.3913 -2.3084,3.9141 -8.7762,7.2521 -4.0668,2.0988 -6.2831,3.56 -7.9922,5.2691 -1.5414,1.5414 -2.2991,2.9726 -2.2991,4.3425 0,0.9011 0.05,1.0145 0.7496,1.7095 1.1294,1.1214 2.3793,1.5257 5.0619,1.6375 1.2621,0.053 3.1554,-0.01 4.4531,-0.1387 2.5797,-0.263 3.037,-0.1657 3.2241,0.6862 0.085,0.3883 -0.027,0.856 -0.4245,1.7606 -0.2973,0.6775 -0.5406,1.401 -0.5406,1.6079 0,0.7138 0.5238,1.4082 1.3954,1.8499 2.1076,1.068 3.2431,3.3494 4.4126,8.8659 0.5569,2.6268 1.3096,4.7971 2.4946,7.1934 0.8417,1.702 1.0467,2.2835 1.0464,2.9681 -8e-4,1.8059 -1.7055,2.449 -3.7045,1.3975 -0.9282,-0.4882 -1.3733,-1.0754 -1.7046,-2.2489 -0.2545,-0.9016 -1.1942,-1.2267 -3.4989,-1.2106 -3.6223,0.025 -5.2525,0.595 -7.1154,2.4868 -1.7743,1.802 -2.8319,3.8021 -3.5851,6.7806 -0.4985,1.9712 -0.4121,5.1068 0.1765,6.4049 0.7318,1.6141 1.3992,2.0853 3.3336,2.3533 1.9242,0.2667 3.1483,1.0005 5.3383,3.2003 3.1315,3.1455 4.8422,6.782404 3.977,8.455404 -0.3809,0.7366 -1.1116,0.965 -2.7061,0.8456 -2.4445,-0.1831 -4.8945,-1.1479 -12.3738,-4.872904 -6.8767,-3.425 -8.632,-3.9862 -10.1755,-3.2538 -0.9473,0.4495 -1.5795,1.3517 -3.0124,4.2986 -1.9962,4.105304 -3.0615,5.427004 -5.6127,6.963204 -2.322,1.3983 -4.7984,2.1654 -10.225,3.1676 -7.0821,1.3079 -16.3594,4.3545 -24.8709,8.1675 -1.8432,0.8258 -4.5535,2.0402 -6.0227,2.6987 -7.8344,3.5113 -16.2339,5.9011 -22.9051,6.5167 -2.1685,0.2001 -3.3163,0.1985 -5.0837,-0.01 z"
     id="path104-5-9" /><path
     style="display:inline;fill:#fecf4b;fill-opacity:1"
     d="m 162.86265,215.40411 c -2.7701,-2.7973 -6.5164,-6.6434 -8.325,-8.5468 -4.8194,-5.0722 -6.1292,-6.1977 -10.72,-9.2119 -5.2601,-3.4536 -8.8272,-5.2189 -17.4475,-8.6347 -16.2848,-6.4528 -24.1642,-10.7753 -25.9216,-14.22 -2.0524,-4.023 4.6402,-6.0157 20.186,-6.0105 2.718,9e-4 6.8503,0.081 9.1828,0.177 19.2811,0.7968 24.6537,0.4898 28.7438,-1.6425 1.557,-0.8117 3.6891,-3.0141 4.9117,-5.0736 1.5861,-2.6718 5.0123,-10.5168 6.5524,-15.0029 1.4469,-4.2146 1.462,-5.9827 0.066,-7.7485 -0.8389,-1.0614 -2.5783,-2.3836 -3.4533,-2.6252 -1.6506,-0.4558 -3.101,1.2897 -5.3397,6.4258 -2.8569,6.5545 -5.2013,10.7476 -7.333,13.1157 -1.3106,1.4559 -2.9276,2.3288 -3.6238,1.9563 -0.5013,-0.2683 -0.4118,-0.8339 0.3773,-2.3835 0.5114,-1.0044 0.6982,-1.5739 0.6615,-2.0169 -0.05,-0.5989 -0.075,-0.619 -0.8551,-0.6698 -1.2873,-0.084 -3.1266,0.8585 -4.9478,2.5348 -0.447,0.4114 -1.1358,0.9128 -1.5305,1.1142 -2.5911,1.3219 -10.0634,2.3388 -22.3511,3.0416 -5.0169,0.287 -19.3646,0.2917 -22.7543,0.01 -5.9461,-0.4985 -8.5548,-1.2166 -8.5548,-2.3549 0,-1.3777 -2.8119,-1.3842 -4.4171,-0.01 -1.1638,0.9961 -1.4871,1.8018 -1.4418,3.5935 0.049,1.942 -0.3354,3.2502 -1.7542,5.9683 -2.5985,4.9785 -6.9362,9.9608 -9.3593,10.7504 -0.8804,0.2869 -1.5228,-0.022 -1.9877,-0.9567 -0.5186,-1.0424 -0.4527,-3.2541 0.1524,-5.1153 0.7997,-2.4599 0.5454,-3.6286 -0.8465,-3.8897 -2.2399,-0.4202 -6.0817,1.9781 -8.2088,5.1244 -1.4995,2.218 -2.9065,3.516 -5.1457,4.7468 -2.9954,1.6465 -6.1217,2.1612 -10.2523,1.6879 -2.8016,-0.321 -3.6585,-0.9238 -3.6585,-2.5739 0,-1.212 0.4448,-2.3752 2.4204,-6.3302 0.8723,-1.7462 1.7562,-3.6714 1.9641,-4.2781 0.414,-1.2081 0.4998,-2.8497 0.1664,-3.1831 -0.2941,-0.2942 -1.7106,-0.2647 -2.615,0.054 -1.0999,0.388 -2.9693,1.3647 -5.3754,2.8083 -3.5775,2.1465 -5.7226,2.8575 -9.1723,3.0401 -4.1195,0.2181 -7.7814,-1.1282 -9.166,-3.3698 -0.4821,-0.7804 -0.5349,-1.0083 -0.5306,-2.2908 0,-1.1109 0.088,-1.582 0.3842,-2.1419 1.051,-1.9883 3.0728,-3.7942 5.6427,-5.0404 1.1559,-0.5605 1.7744,-0.7389 3.0868,-0.8905 2.2748,-0.2627 2.846,-0.425 3.3815,-0.9605 0.7847,-0.7847 0.5354,-1.7738 -0.7367,-2.923 -1.0543,-0.9525 -2.0511,-1.4687 -4.143,-2.1455 -1.0476,-0.3389 -2.2448,-0.8155 -2.6606,-1.0591 -1.6613,-0.9737 -2.8427,-2.8943 -3.3767,-5.4896 -0.3664,-1.7808 -0.424,-5.9395 -0.1026,-7.4084 1.0653,-4.8688 4.8408,-7.6817 9.3679,-6.9793 3.5581,0.5521 7.0306,2.8887 9.7424,6.5555 2.2404,3.0295 4.9757,4.7597 9.1309,5.7755 2.4472,0.5984 4.3057,0.7824 7.8493,0.7773 7.0033,-0.01 14.3892,-1.4068 23.548,-4.453 7.6467,-2.5433 12.1122,-4.4844 23.7243,-10.3126 15.181,-7.6194 19.0577,-9.1613 23.0187,-9.1553 3.1252,0 4.5061,0.7658 8.7115,4.8008 4.9916,4.7894 6.2351,5.671 7.9989,5.671 2.194,0 3.8179,-1.5811 8.5028,-8.2789 3.3279,-4.7577 5.0679,-6.6974 7.4011,-8.2507 2.9121,-1.9386 5.6518,-1.7521 7.6984,0.5242 1.4545,1.6178 2.3433,3.7216 3.4191,8.0935 1.655,6.7254 5.3378,16.9927 9.0379,25.1963 2.0255,4.491 3.0076,6.1744 4.6162,7.9131 2.5679,2.7757 6.2414,8.7321 9.6434,15.6365 2.0822,4.2258 3.3169,7.2236 3.7954,9.2148 0.2883,1.1998 0.2893,1.3831 0.016,3.022 -1.5324,9.1986 1.0761,18.5321 6.8509,24.5134 6.2746,6.4989 13.6236,6.5555 18.0593,0.139 1.2789,-1.85 2.0088,-3.4586 3.1292,-6.8967 1.9856,-6.093 2.5448,-8.652 2.5402,-11.6234 -0.01,-5.1276 -1.6362,-8.6036 -10.507,-22.4313 -4.9347,-7.6922 -6.3657,-10.6523 -7.2484,-14.9942 -0.4629,-2.2771 -0.4478,-10.1322 0.029,-14.8102 0.4523,-4.4424 0.4838,-11.4149 0.06,-13.2292 -0.6848,-2.93 -1.7866,-4.8224 -4.4443,-7.6329 -1.9512,-2.0633 -2.8954,-3.3017 -3.5945,-4.7143 -1.9345,-3.9088 -2.1627,-8.69 -1.0902,-22.842404 0.9066,-11.9622 1.8358,-18.1923 3.0796,-20.6468 0.731,-1.4424 1.7628,-1.6582 2.8038,-0.5864 0.7175,0.7388 2.0631,3.2949 3.0064,5.711 1.9069,4.884 3.2839,7.1793 5.0932,8.49 0.5386,0.3901 0.8926,0.5058 1.5477,0.5058 1.8138,0 2.7846,-1.6884 3.7555,-6.5318 1.1271,-5.6229 2.9734,-10.6829 7.8181,-21.4258 4.2567,-9.4392 6.6303,-13.7016 8.9397,-16.0537 3.2477,-3.3079 5.4394,-2.0635 4.6297,2.6286 -0.4343,2.5168 -1.5754,4.3289 -3.2483,5.1587 -0.7204,0.3573 -2.4807,0.4397 -3.9675,0.1858 -1.142,-0.1951 -1.1029,0.057 0.2437,1.5721 1.9903,2.2391 2.548,3.9804 2.3952,7.4786 -0.083,1.8982 -0.2236,2.6956 -1.0117,5.7327 -0.6995,2.6954 -0.9369,3.9461 -1.0063,5.3008 -0.086,1.6822 -0.069,1.7983 0.3317,2.2643 0.5544,0.6445 1.6788,0.8571 3.3705,0.6374 1.7649,-0.2293 1.8487,-0.2227 2.2474,0.1759 0.5152,0.5153 0.4397,1.3441 -0.2502,2.7447 -0.7197,1.4609 -0.8835,2.0464 -0.7365,2.632 0.3561,1.4188 3.7226,1.2533 7.6895,-0.3779 1.8028,-0.7414 3.6913,-1.7526 6.888,-3.6884 2.616,-1.5842 4.9082,-2.7773 5.7068,-2.9706 0.7804,-0.1889 1.4655,0.1783 1.709,0.916 0.2956,0.8957 0.066,4.3226 -0.389,5.7941 -0.2677,0.8667 -0.5501,1.3502 -1.1234,1.9236 -0.9558,0.9558 -1.671,1.1222 -3.1073,0.7228 -2.0542,-0.5711 -3.3341,-0.2648 -3.3341,0.7979 0,1.2819 1.0227,2.4483 2.9569,3.3722 0.9558,0.4566 1.2016,0.6676 1.4726,1.2641 0.6148,1.3536 0.3154,2.994 -1.0716,5.8704 -2.3814,4.9387 -7.3057,11.4862 -15.094,20.069304 -2.792,3.077 -3.8761,4.4607 -5.9124,7.5464 -5.0062,7.5865 -8.4783,16.933 -9.6106,25.8706 -0.4505,3.5567 -0.2941,8.793 0.3342,11.1866 0.607,2.3124 1.5227,4.1241 2.6777,5.2977 1.2476,1.2676 2.4743,1.8272 4.455,2.0322 2.3445,0.2425 3.7581,0.9513 4.9124,2.463 l 0.5989,0.7844 -0.1088,-1.4849 c -0.3402,-4.6432 3.1142,-14.4346 6.8497,-19.4151 1.4967,-1.9956 2.6818,-2.5545 3.5583,-1.678 0.9028,0.9029 0.4656,3.081 -1.0792,5.3763 -1.1678,1.735 -1.579,2.6271 -2.1525,4.6695 -1.3266,4.7243 -2.3379,11.3782 -2.928,19.2638 -0.7867,10.5121 -2.2668,17.7106 -5.1499,25.0472 -2.8956,7.3683 -7.0274,14.0644 -13.3451,21.6274 -2.2277,2.6668 -2.677,3.0638 -3.8717,3.4207 -3.6583,1.093 -9.7778,1.435 -29.8454,1.6679 -20.669,0.2399 -25.1129,0.3175 -25.8462,0.4517 -0.622,0.1138 -0.6272,0.1092 -5.6592,-4.972 z"
     id="path97-8-6" /><path
     style="display:inline;fill:#fecf4b;fill-opacity:1"
     d="m 240.59625,43.207806 c 1.9821,-0.9003 3.0725,-3.1428 3.0725,-6.3188 0,-1.469 -0.2546,-1.9896 -0.9728,-1.9896 -0.4201,0 -1.4575,0.635 -2.2627,1.385 -0.792,0.7376 -2.5027,3.0804 -3.5549,4.8682 -1.2891,2.1904 -1.2797,2.1564 -0.5793,2.0842 0.3183,-0.033 0.9359,0.014 1.3725,0.1036 1.261,0.2595 2.15,0.2192 2.9247,-0.1326 z"
     id="path99-2-2" /><path
     style="display:inline;fill:#000000"
     d="m 139.47675,25.026706 c -7.6616,-1.1927 -8.7106,-1.5447 -10.7353,-3.6025 -0.9806,-0.9966 -1.4635,-1.6777 -2.0917,-2.9502 -2.0796,-4.2122 -1.533,-7.4745 1.3416,-8.0074 3.2861,-0.6090997 12.8546,3.9404 17.2565,8.205 1.4822,1.4359 1.9362,2.2931 1.9362,3.6558 0,1.2981 -0.423,2.1176 -1.3391,2.5938 -0.9637,0.501 -3.5525,0.5439 -6.3682,0.1055 z"
     id="path106-9-8" /></svg>
